<?xml version="1.0" encoding="UTF-8" standalone="no"?>
<!DOCTYPE svg PUBLIC "-//W3C//DTD SVG 1.1//EN" "http://www.w3.org/Graphics/SVG/1.1/DTD/svg11.dtd">
<svg xmlns="http://www.w3.org/2000/svg" version="1.1" viewBox="0 0 180 180">
<g stroke-width="2.00" fill="none" stroke-linecap="butt">
<path stroke="#eeda8e" vector-effect="non-scaling-stroke" d="
  M 12.23 14.60
  Q 7.01 19.60 4.76 27.61"
/>
<path stroke="#eed573" vector-effect="non-scaling-stroke" d="
  M 4.76 27.61
  Q 1.92 35.47 2.29 44.75"
/>
<path stroke="#bbbec2" vector-effect="non-scaling-stroke" d="
  M 2.29 44.75
  Q 1.87 45.61 1.97 47.77"
/>
<path stroke="#d2d2d4" vector-effect="non-scaling-stroke" d="
  M 1.97 47.77
  Q 8.73 48.84 15.58 48.42
  C 17.54 48.30 19.59 48.81 21.25 48.72
  C 35.86 47.96 48.60 48.67 65.15 48.49
  C 76.24 48.37 89.20 48.71 101.25 48.56
  C 122.06 48.30 142.65 49.16 163.73 48.47
  Q 170.25 48.25 176.78 48.38
  A 0.99 0.98 5.4 0 0 177.78 47.56
  L 177.97 46.51"
/>
<path stroke="#bbbec2" vector-effect="non-scaling-stroke" d="
  M 177.97 46.51
  L 177.96 44.75"
/>
<path stroke="#eed573" vector-effect="non-scaling-stroke" d="
  M 177.96 44.75
  Q 177.93 35.94 175.46 27.50"
/>
<path stroke="#eeda8e" vector-effect="non-scaling-stroke" d="
  M 175.46 27.50
  Q 173.35 20.37 168.21 15.00"
/>
<path stroke="#eeda8e" vector-effect="non-scaling-stroke" d="
  M 168.21 15.00
  C 158.62 4.32 146.08 1.91 132.25 1.97
  Q 92.04 2.13 51.84 1.82
  C 37.02 1.71 22.65 2.96 12.23 14.60"
/>
<path stroke="#ffd83e" vector-effect="non-scaling-stroke" d="
  M 168.21 15.00
  L 117.87 15.23
  A 0.35 0.26 18.0 0 0 117.66 15.30
  L 117.46 15.46
  A 0.46 0.41 -60.8 0 1 117.20 15.55
  L 90.83 15.10
  A 1.04 0.99 29.2 0 0 90.33 15.23
  Q 89.64 15.61 89.06 15.59
  Q 60.40 14.74 39.75 15.21
  Q 23.98 15.57 12.23 14.60"
/>
<path stroke="#ffd323" vector-effect="non-scaling-stroke" d="
  M 175.46 27.50
  Q 170.50 27.67 150.19 27.72
  Q 77.51 27.88 4.76 27.61"
/>
<path stroke="#ccb758" vector-effect="non-scaling-stroke" d="
  M 177.96 44.75
  C 177.13 45.80 18.29 45.00 2.69 45.00
  A 0.24 0.21 70.4 0 1 2.51 44.90
  Q 2.42 44.76 2.29 44.75"
/>
<path stroke="#b0b3b9" vector-effect="non-scaling-stroke" d="
  M 177.97 46.51
  Q 61.46 46.96 15.19 46.62
  Q 7.07 46.56 1.97 47.77"
/>
<path stroke="#d2d2d4" vector-effect="non-scaling-stroke" d="
  M 2.18 88.99
  Q 1.31 90.35 2.04 92.00"
/>
<path stroke="#eeeeee" vector-effect="non-scaling-stroke" d="
  M 2.04 92.00
  Q 1.36 112.95 2.00 133.99"
/>
<path stroke="#d2d2d4" vector-effect="non-scaling-stroke" d="
  M 2.00 133.99
  Q 1.36 135.63 2.25 137.21"
/>
<path stroke="#eeeeee" vector-effect="non-scaling-stroke" d="
  M 2.25 137.21
  C 2.14 160.80 17.12 177.47 41.25 177.75
  Q 88.87 178.30 136.48 177.80
  C 158.43 177.57 174.47 166.63 177.50 144.02
  Q 178.06 139.81 177.78 137.06"
/>
<path stroke="#d2d2d4" vector-effect="non-scaling-stroke" d="
  M 177.78 137.06
  Q 178.62 135.61 178.21 134.00"
/>
<path stroke="#eeeeee" vector-effect="non-scaling-stroke" d="
  M 178.21 134.00
  L 178.25 91.96"
/>
<path stroke="#d2d2d4" vector-effect="non-scaling-stroke" d="
  M 178.25 91.96
  L 178.22 88.95"
/>
<path stroke="#eeeeee" vector-effect="non-scaling-stroke" d="
  M 178.22 88.95
  L 178.25 57.09
  A 0.97 0.97 0.0 0 0 177.93 56.37
  Q 176.02 54.56 177.97 52.56
  A 0.80 0.80 0.0 0 0 178.10 51.62
  Q 178.02 51.47 177.88 51.33
  C 177.39 50.84 163.39 50.73 161.34 50.61
  C 159.88 50.52 158.55 51.11 157.10 51.35
  C 155.34 51.64 152.97 50.27 151.75 50.73
  Q 148.06 52.13 144.78 50.30
  C 143.83 49.77 143.06 49.97 142.38 50.72
  A 1.01 1.00 23.4 0 1 141.56 51.04
  L 135.40 50.50
  Q 135.21 50.48 135.02 50.54
  C 130.86 51.79 127.92 49.80 122.75 51.29
  A 1.07 1.00 43.0 0 1 122.22 51.29
  C 118.32 50.29 114.23 52.35 110.65 50.32
  A 1.00 0.97 50.7 0 0 109.86 50.23
  C 105.47 51.58 101.22 50.02 96.62 51.20
  A 0.99 0.99 0.0 0 1 95.88 51.10
  C 93.09 49.54 89.13 51.65 85.85 51.04
  A 1.04 1.01 -16.4 0 1 85.32 50.76
  C 84.46 49.89 79.05 51.45 76.36 50.23
  A 1.00 1.00 0.0 0 0 75.15 50.54
  L 74.97 50.78
  A 0.82 0.82 0.0 0 1 74.23 51.10
  Q 68.91 50.48 63.69 51.59
  A 1.04 1.04 0.0 0 1 63.02 51.50
  C 59.03 49.40 55.88 52.60 51.55 50.74
  A 1.08 1.07 48.0 0 0 50.88 50.70
  C 46.92 51.81 43.03 50.75 39.78 50.90
  Q 34.29 51.16 28.80 51.43
  A 1.03 0.99 57.5 0 1 28.27 51.30
  Q 25.29 49.64 22.23 51.35
  A 1.00 0.99 32.9 0 1 21.65 51.47
  Q 12.39 50.62 3.10 51.24
  A 1.00 1.00 0.0 0 0 2.17 52.32
  Q 2.37 54.78 1.75 59.25
  Q 1.09 64.01 2.18 88.99"
/>
<path stroke="#e3e3e5" vector-effect="non-scaling-stroke" d="
  M 178.22 88.95
  L 2.18 88.99"
/>
<path stroke="#e3e3e5" vector-effect="non-scaling-stroke" d="
  M 178.25 91.96
  L 2.04 92.00"
/>
<path stroke="#e3e3e5" vector-effect="non-scaling-stroke" d="
  M 178.21 134.00
  L 2.00 133.99"
/>
<path stroke="#e3e3e5" vector-effect="non-scaling-stroke" d="
  M 177.78 137.06
  L 2.25 137.21"
/>
<path stroke="#e3e3e5" vector-effect="non-scaling-stroke" d="
  M 10.96 54.40
  A 2.04 2.04 0.0 0 0 8.92 52.36
  A 2.04 2.04 0.0 0 0 6.88 54.40
  A 2.04 2.04 0.0 0 0 8.92 56.44
  A 2.04 2.04 0.0 0 0 10.96 54.40"
/>
<path stroke="#e3e3e5" vector-effect="non-scaling-stroke" d="
  M 19.49 54.35
  A 2.06 2.06 0.0 0 0 17.43 52.29
  A 2.06 2.06 0.0 0 0 15.37 54.35
  A 2.06 2.06 0.0 0 0 17.43 56.41
  A 2.06 2.06 0.0 0 0 19.49 54.35"
/>
<path stroke="#e3e3e5" vector-effect="non-scaling-stroke" d="
  M 27.99 54.36
  A 2.08 2.08 0.0 0 0 25.91 52.28
  A 2.08 2.08 0.0 0 0 23.83 54.36
  A 2.08 2.08 0.0 0 0 25.91 56.44
  A 2.08 2.08 0.0 0 0 27.99 54.36"
/>
<path stroke="#e3e3e5" vector-effect="non-scaling-stroke" d="
  M 36.48 54.38
  A 2.05 2.05 0.0 0 0 34.43 52.33
  A 2.05 2.05 0.0 0 0 32.38 54.38
  A 2.05 2.05 0.0 0 0 34.43 56.43
  A 2.05 2.05 0.0 0 0 36.48 54.38"
/>
<path stroke="#e3e3e5" vector-effect="non-scaling-stroke" d="
  M 44.97 54.39
  A 2.04 2.04 0.0 0 0 42.93 52.35
  A 2.04 2.04 0.0 0 0 40.89 54.39
  A 2.04 2.04 0.0 0 0 42.93 56.43
  A 2.04 2.04 0.0 0 0 44.97 54.39"
/>
<path stroke="#e3e3e5" vector-effect="non-scaling-stroke" d="
  M 53.50 54.35
  A 2.05 2.05 0.0 0 0 51.45 52.30
  A 2.05 2.05 0.0 0 0 49.40 54.35
  A 2.05 2.05 0.0 0 0 51.45 56.40
  A 2.05 2.05 0.0 0 0 53.50 54.35"
/>
<path stroke="#e3e3e5" vector-effect="non-scaling-stroke" d="
  M 61.98 54.38
  A 2.05 2.05 0.0 0 0 59.93 52.33
  A 2.05 2.05 0.0 0 0 57.88 54.38
  A 2.05 2.05 0.0 0 0 59.93 56.43
  A 2.05 2.05 0.0 0 0 61.98 54.38"
/>
<path stroke="#e3e3e5" vector-effect="non-scaling-stroke" d="
  M 70.48 54.38
  A 2.03 2.03 0.0 0 0 68.45 52.35
  A 2.03 2.03 0.0 0 0 66.42 54.38
  A 2.03 2.03 0.0 0 0 68.45 56.41
  A 2.03 2.03 0.0 0 0 70.48 54.38"
/>
<path stroke="#e3e3e5" vector-effect="non-scaling-stroke" d="
  M 78.95 54.41
  A 2.04 2.04 0.0 0 0 76.91 52.37
  A 2.04 2.04 0.0 0 0 74.87 54.41
  A 2.04 2.04 0.0 0 0 76.91 56.45
  A 2.04 2.04 0.0 0 0 78.95 54.41"
/>
<path stroke="#e3e3e5" vector-effect="non-scaling-stroke" d="
  M 87.52 54.34
  A 2.07 2.07 0.0 0 0 85.45 52.27
  A 2.07 2.07 0.0 0 0 83.38 54.34
  A 2.07 2.07 0.0 0 0 85.45 56.41
  A 2.07 2.07 0.0 0 0 87.52 54.34"
/>
<path stroke="#e3e3e5" vector-effect="non-scaling-stroke" d="
  M 96.00 54.36
  A 2.07 2.07 0.0 0 0 93.93 52.29
  A 2.07 2.07 0.0 0 0 91.86 54.36
  A 2.07 2.07 0.0 0 0 93.93 56.43
  A 2.07 2.07 0.0 0 0 96.00 54.36"
/>
<path stroke="#e3e3e5" vector-effect="non-scaling-stroke" d="
  M 104.47 54.38
  A 2.05 2.05 0.0 0 0 102.42 52.33
  A 2.05 2.05 0.0 0 0 100.37 54.38
  A 2.05 2.05 0.0 0 0 102.42 56.43
  A 2.05 2.05 0.0 0 0 104.47 54.38"
/>
<path stroke="#e3e3e5" vector-effect="non-scaling-stroke" d="
  M 112.98 54.39
  A 2.04 2.04 0.0 0 0 110.94 52.35
  A 2.04 2.04 0.0 0 0 108.90 54.39
  A 2.04 2.04 0.0 0 0 110.94 56.43
  A 2.04 2.04 0.0 0 0 112.98 54.39"
/>
<path stroke="#e3e3e5" vector-effect="non-scaling-stroke" d="
  M 121.52 54.34
  A 2.07 2.07 0.0 0 0 119.45 52.27
  A 2.07 2.07 0.0 0 0 117.38 54.34
  A 2.07 2.07 0.0 0 0 119.45 56.41
  A 2.07 2.07 0.0 0 0 121.52 54.34"
/>
<path stroke="#e3e3e5" vector-effect="non-scaling-stroke" d="
  M 129.98 54.39
  A 2.05 2.05 0.0 0 0 127.93 52.34
  A 2.05 2.05 0.0 0 0 125.88 54.39
  A 2.05 2.05 0.0 0 0 127.93 56.44
  A 2.05 2.05 0.0 0 0 129.98 54.39"
/>
<path stroke="#e3e3e5" vector-effect="non-scaling-stroke" d="
  M 138.48 54.38
  A 2.03 2.03 0.0 0 0 136.45 52.35
  A 2.03 2.03 0.0 0 0 134.42 54.38
  A 2.03 2.03 0.0 0 0 136.45 56.41
  A 2.03 2.03 0.0 0 0 138.48 54.38"
/>
<path stroke="#e3e3e5" vector-effect="non-scaling-stroke" d="
  M 146.95 54.41
  A 2.04 2.04 0.0 0 0 144.91 52.37
  A 2.04 2.04 0.0 0 0 142.87 54.41
  A 2.04 2.04 0.0 0 0 144.91 56.45
  A 2.04 2.04 0.0 0 0 146.95 54.41"
/>
<path stroke="#e3e3e5" vector-effect="non-scaling-stroke" d="
  M 155.51 54.35
  A 2.07 2.07 0.0 0 0 153.44 52.28
  A 2.07 2.07 0.0 0 0 151.37 54.35
  A 2.07 2.07 0.0 0 0 153.44 56.42
  A 2.07 2.07 0.0 0 0 155.51 54.35"
/>
<path stroke="#e3e3e5" vector-effect="non-scaling-stroke" d="
  M 164.01 54.37
  A 2.06 2.06 0.0 0 0 161.95 52.31
  A 2.06 2.06 0.0 0 0 159.89 54.37
  A 2.06 2.06 0.0 0 0 161.95 56.43
  A 2.06 2.06 0.0 0 0 164.01 54.37"
/>
<path stroke="#e3e3e5" vector-effect="non-scaling-stroke" d="
  M 172.51 54.40
  A 2.07 2.07 0.0 0 0 170.44 52.33
  A 2.07 2.07 0.0 0 0 168.37 54.40
  A 2.07 2.07 0.0 0 0 170.44 56.47
  A 2.07 2.07 0.0 0 0 172.51 54.40"
/>
</g>
<path fill="rgb(88, 81, 38)" d="
  M 47.60 0.20
  L 134.56 0.00
  Q 146.42 0.63 149.26 1.48
  Q 180.04 10.68 179.90 43.60
  L 180.00 137.31
  Q 179.34 146.36 178.24 150.51
  C 172.81 170.85 155.17 180.45 134.93 179.94
  L 44.69 180.00
  C 15.11 178.67 1.28 164.70 0.00 135.19
  L 0.00 44.19
  C 0.27 35.04 1.80 25.67 7.07 18.07
  Q 20.93 -1.88 47.60 0.20
  Z
  M 12.23 14.60
  Q 7.01 19.60 4.76 27.61
  Q 1.92 35.47 2.29 44.75
  Q 1.87 45.61 1.97 47.77
  Q 8.73 48.84 15.58 48.42
  C 17.54 48.30 19.59 48.81 21.25 48.72
  C 35.86 47.96 48.60 48.67 65.15 48.49
  C 76.24 48.37 89.20 48.71 101.25 48.56
  C 122.06 48.30 142.65 49.16 163.73 48.47
  Q 170.25 48.25 176.78 48.38
  A 0.99 0.98 5.4 0 0 177.78 47.56
  L 177.97 46.51
  L 177.96 44.75
  Q 177.93 35.94 175.46 27.50
  Q 173.35 20.37 168.21 15.00
  C 158.62 4.32 146.08 1.91 132.25 1.97
  Q 92.04 2.13 51.84 1.82
  C 37.02 1.71 22.65 2.96 12.23 14.60
  Z
  M 2.18 88.99
  Q 1.31 90.35 2.04 92.00
  Q 1.36 112.95 2.00 133.99
  Q 1.36 135.63 2.25 137.21
  C 2.14 160.80 17.12 177.47 41.25 177.75
  Q 88.87 178.30 136.48 177.80
  C 158.43 177.57 174.47 166.63 177.50 144.02
  Q 178.06 139.81 177.78 137.06
  Q 178.62 135.61 178.21 134.00
  L 178.25 91.96
  L 178.22 88.95
  L 178.25 57.09
  A 0.97 0.97 0.0 0 0 177.93 56.37
  Q 176.02 54.56 177.97 52.56
  A 0.80 0.80 0.0 0 0 178.10 51.62
  Q 178.02 51.47 177.88 51.33
  C 177.39 50.84 163.39 50.73 161.34 50.61
  C 159.88 50.52 158.55 51.11 157.10 51.35
  C 155.34 51.64 152.97 50.27 151.75 50.73
  Q 148.06 52.13 144.78 50.30
  C 143.83 49.77 143.06 49.97 142.38 50.72
  A 1.01 1.00 23.4 0 1 141.56 51.04
  L 135.40 50.50
  Q 135.21 50.48 135.02 50.54
  C 130.86 51.79 127.92 49.80 122.75 51.29
  A 1.07 1.00 43.0 0 1 122.22 51.29
  C 118.32 50.29 114.23 52.35 110.65 50.32
  A 1.00 0.97 50.7 0 0 109.86 50.23
  C 105.47 51.58 101.22 50.02 96.62 51.20
  A 0.99 0.99 0.0 0 1 95.88 51.10
  C 93.09 49.54 89.13 51.65 85.85 51.04
  A 1.04 1.01 -16.4 0 1 85.32 50.76
  C 84.46 49.89 79.05 51.45 76.36 50.23
  A 1.00 1.00 0.0 0 0 75.15 50.54
  L 74.97 50.78
  A 0.82 0.82 0.0 0 1 74.23 51.10
  Q 68.91 50.48 63.69 51.59
  A 1.04 1.04 0.0 0 1 63.02 51.50
  C 59.03 49.40 55.88 52.60 51.55 50.74
  A 1.08 1.07 48.0 0 0 50.88 50.70
  C 46.92 51.81 43.03 50.75 39.78 50.90
  Q 34.29 51.16 28.80 51.43
  A 1.03 0.99 57.5 0 1 28.27 51.30
  Q 25.29 49.64 22.23 51.35
  A 1.00 0.99 32.9 0 1 21.65 51.47
  Q 12.39 50.62 3.10 51.24
  A 1.00 1.00 0.0 0 0 2.17 52.32
  Q 2.37 54.78 1.75 59.25
  Q 1.09 64.01 2.18 88.99
  Z"
/>
<path fill="rgb(88, 81, 38)" d="
  M 168.21 15.00
  L 117.87 15.23
  A 0.35 0.26 18.0 0 0 117.66 15.30
  L 117.46 15.46
  A 0.46 0.41 -60.8 0 1 117.20 15.55
  L 90.83 15.10
  A 1.04 0.99 29.2 0 0 90.33 15.23
  Q 89.64 15.61 89.06 15.59
  Q 60.40 14.74 39.75 15.21
  Q 23.98 15.57 12.23 14.60
  C 22.65 2.96 37.02 1.71 51.84 1.82
  Q 92.04 2.13 132.25 1.97
  C 146.08 1.91 158.62 4.32 168.21 15.00
  Z"
/>
<path fill="rgb(88, 81, 38)" d="
  M 12.23 14.60
  Q 23.98 15.57 39.75 15.21
  Q 60.40 14.74 89.06 15.59
  Q 89.64 15.61 90.33 15.23
  A 1.04 0.99 29.2 0 1 90.83 15.10
  L 117.20 15.55
  A 0.46 0.41 -60.8 0 0 117.46 15.46
  L 117.66 15.30
  A 0.35 0.26 18.0 0 1 117.87 15.23
  L 168.21 15.00
  Q 173.35 20.37 175.46 27.50
  Q 170.50 27.67 150.19 27.72
  Q 77.51 27.88 4.76 27.61
  Q 7.01 19.60 12.23 14.60
  Z"
/>
<path fill="rgb(88, 81, 38)" d="
  M 4.76 27.61
  Q 77.51 27.88 150.19 27.72
  Q 170.50 27.67 175.46 27.50
  Q 177.93 35.94 177.96 44.75
  C 177.13 45.80 18.29 45.00 2.69 45.00
  A 0.24 0.21 70.4 0 1 2.51 44.90
  Q 2.42 44.76 2.29 44.75
  Q 1.92 35.47 4.76 27.61
  Z"
/>
<path fill="rgb(88, 81, 38)" d="
  M 2.29 44.75
  Q 2.42 44.76 2.51 44.90
  A 0.24 0.21 70.4 0 0 2.69 45.00
  C 18.29 45.00 177.13 45.80 177.96 44.75
  L 177.97 46.51
  Q 61.46 46.96 15.19 46.62
  Q 7.07 46.56 1.97 47.77
  Q 1.87 45.61 2.29 44.75
  Z"
/>
<path fill="rgb(88, 81, 38)" d="
  M 177.97 46.51
  L 177.78 47.56
  A 0.99 0.98 5.4 0 1 176.78 48.38
  Q 170.25 48.25 163.73 48.47
  C 142.65 49.16 122.06 48.30 101.25 48.56
  C 89.20 48.71 76.24 48.37 65.15 48.49
  C 48.60 48.67 35.86 47.96 21.25 48.72
  C 19.59 48.81 17.54 48.30 15.58 48.42
  Q 8.73 48.84 1.97 47.77
  Q 7.07 46.56 15.19 46.62
  Q 61.46 46.96 177.97 46.51
  Z"
/>
<path fill="#e6d7b4" d="
  M 178.22 88.95
  L 2.18 88.99
  Q 1.09 64.01 1.75 59.25
  Q 2.37 54.78 2.17 52.32
  A 1.00 1.00 0.0 0 1 3.10 51.24
  Q 12.39 50.62 21.65 51.47
  A 1.00 0.99 32.9 0 0 22.23 51.35
  Q 25.29 49.64 28.27 51.30
  A 1.03 0.99 57.5 0 0 28.80 51.43
  Q 34.29 51.16 39.78 50.90
  C 43.03 50.75 46.92 51.81 50.88 50.70
  A 1.08 1.07 48.0 0 1 51.55 50.74
  C 55.88 52.60 59.03 49.40 63.02 51.50
  A 1.04 1.04 0.0 0 0 63.69 51.59
  Q 68.91 50.48 74.23 51.10
  A 0.82 0.82 0.0 0 0 74.97 50.78
  L 75.15 50.54
  A 1.00 1.00 0.0 0 1 76.36 50.23
  C 79.05 51.45 84.46 49.89 85.32 50.76
  A 1.04 1.01 -16.4 0 0 85.85 51.04
  C 89.13 51.65 93.09 49.54 95.88 51.10
  A 0.99 0.99 0.0 0 0 96.62 51.20
  C 101.22 50.02 105.47 51.58 109.86 50.23
  A 1.00 0.97 50.7 0 1 110.65 50.32
  C 114.23 52.35 118.32 50.29 122.22 51.29
  A 1.07 1.00 43.0 0 0 122.75 51.29
  C 127.92 49.80 130.86 51.79 135.02 50.54
  Q 135.21 50.48 135.40 50.50
  L 141.56 51.04
  A 1.01 1.00 23.4 0 0 142.38 50.72
  C 143.06 49.97 143.83 49.77 144.78 50.30
  Q 148.06 52.13 151.75 50.73
  C 152.97 50.27 155.34 51.64 157.10 51.35
  C 158.55 51.11 159.88 50.52 161.34 50.61
  C 163.39 50.73 177.39 50.84 177.88 51.33
  Q 178.02 51.47 178.10 51.62
  A 0.80 0.80 0.0 0 1 177.97 52.56
  Q 176.02 54.56 177.93 56.37
  A 0.97 0.97 0.0 0 1 178.25 57.09
  L 178.22 88.95
  Z
  M 10.96 54.40
  A 2.04 2.04 0.0 0 0 8.92 52.36
  A 2.04 2.04 0.0 0 0 6.88 54.40
  A 2.04 2.04 0.0 0 0 8.92 56.44
  A 2.04 2.04 0.0 0 0 10.96 54.40
  Z
  M 19.49 54.35
  A 2.06 2.06 0.0 0 0 17.43 52.29
  A 2.06 2.06 0.0 0 0 15.37 54.35
  A 2.06 2.06 0.0 0 0 17.43 56.41
  A 2.06 2.06 0.0 0 0 19.49 54.35
  Z
  M 27.99 54.36
  A 2.08 2.08 0.0 0 0 25.91 52.28
  A 2.08 2.08 0.0 0 0 23.83 54.36
  A 2.08 2.08 0.0 0 0 25.91 56.44
  A 2.08 2.08 0.0 0 0 27.99 54.36
  Z
  M 36.48 54.38
  A 2.05 2.05 0.0 0 0 34.43 52.33
  A 2.05 2.05 0.0 0 0 32.38 54.38
  A 2.05 2.05 0.0 0 0 34.43 56.43
  A 2.05 2.05 0.0 0 0 36.48 54.38
  Z
  M 44.97 54.39
  A 2.04 2.04 0.0 0 0 42.93 52.35
  A 2.04 2.04 0.0 0 0 40.89 54.39
  A 2.04 2.04 0.0 0 0 42.93 56.43
  A 2.04 2.04 0.0 0 0 44.97 54.39
  Z
  M 53.50 54.35
  A 2.05 2.05 0.0 0 0 51.45 52.30
  A 2.05 2.05 0.0 0 0 49.40 54.35
  A 2.05 2.05 0.0 0 0 51.45 56.40
  A 2.05 2.05 0.0 0 0 53.50 54.35
  Z
  M 61.98 54.38
  A 2.05 2.05 0.0 0 0 59.93 52.33
  A 2.05 2.05 0.0 0 0 57.88 54.38
  A 2.05 2.05 0.0 0 0 59.93 56.43
  A 2.05 2.05 0.0 0 0 61.98 54.38
  Z
  M 70.48 54.38
  A 2.03 2.03 0.0 0 0 68.45 52.35
  A 2.03 2.03 0.0 0 0 66.42 54.38
  A 2.03 2.03 0.0 0 0 68.45 56.41
  A 2.03 2.03 0.0 0 0 70.48 54.38
  Z
  M 78.95 54.41
  A 2.04 2.04 0.0 0 0 76.91 52.37
  A 2.04 2.04 0.0 0 0 74.87 54.41
  A 2.04 2.04 0.0 0 0 76.91 56.45
  A 2.04 2.04 0.0 0 0 78.95 54.41
  Z
  M 87.52 54.34
  A 2.07 2.07 0.0 0 0 85.45 52.27
  A 2.07 2.07 0.0 0 0 83.38 54.34
  A 2.07 2.07 0.0 0 0 85.45 56.41
  A 2.07 2.07 0.0 0 0 87.52 54.34
  Z
  M 96.00 54.36
  A 2.07 2.07 0.0 0 0 93.93 52.29
  A 2.07 2.07 0.0 0 0 91.86 54.36
  A 2.07 2.07 0.0 0 0 93.93 56.43
  A 2.07 2.07 0.0 0 0 96.00 54.36
  Z
  M 104.47 54.38
  A 2.05 2.05 0.0 0 0 102.42 52.33
  A 2.05 2.05 0.0 0 0 100.37 54.38
  A 2.05 2.05 0.0 0 0 102.42 56.43
  A 2.05 2.05 0.0 0 0 104.47 54.38
  Z
  M 112.98 54.39
  A 2.04 2.04 0.0 0 0 110.94 52.35
  A 2.04 2.04 0.0 0 0 108.90 54.39
  A 2.04 2.04 0.0 0 0 110.94 56.43
  A 2.04 2.04 0.0 0 0 112.98 54.39
  Z
  M 121.52 54.34
  A 2.07 2.07 0.0 0 0 119.45 52.27
  A 2.07 2.07 0.0 0 0 117.38 54.34
  A 2.07 2.07 0.0 0 0 119.45 56.41
  A 2.07 2.07 0.0 0 0 121.52 54.34
  Z
  M 129.98 54.39
  A 2.05 2.05 0.0 0 0 127.93 52.34
  A 2.05 2.05 0.0 0 0 125.88 54.39
  A 2.05 2.05 0.0 0 0 127.93 56.44
  A 2.05 2.05 0.0 0 0 129.98 54.39
  Z
  M 138.48 54.38
  A 2.03 2.03 0.0 0 0 136.45 52.35
  A 2.03 2.03 0.0 0 0 134.42 54.38
  A 2.03 2.03 0.0 0 0 136.45 56.41
  A 2.03 2.03 0.0 0 0 138.48 54.38
  Z
  M 146.95 54.41
  A 2.04 2.04 0.0 0 0 144.91 52.37
  A 2.04 2.04 0.0 0 0 142.87 54.41
  A 2.04 2.04 0.0 0 0 144.91 56.45
  A 2.04 2.04 0.0 0 0 146.95 54.41
  Z
  M 155.51 54.35
  A 2.07 2.07 0.0 0 0 153.44 52.28
  A 2.07 2.07 0.0 0 0 151.37 54.35
  A 2.07 2.07 0.0 0 0 153.44 56.42
  A 2.07 2.07 0.0 0 0 155.51 54.35
  Z
  M 164.01 54.37
  A 2.06 2.06 0.0 0 0 161.95 52.31
  A 2.06 2.06 0.0 0 0 159.89 54.37
  A 2.06 2.06 0.0 0 0 161.95 56.43
  A 2.06 2.06 0.0 0 0 164.01 54.37
  Z
  M 172.51 54.40
  A 2.07 2.07 0.0 0 0 170.44 52.33
  A 2.07 2.07 0.0 0 0 168.37 54.40
  A 2.07 2.07 0.0 0 0 170.44 56.47
  A 2.07 2.07 0.0 0 0 172.51 54.40
  Z"
/>
<circle fill="#rgb(88, 81, 38)" cx="8.92" cy="54.40" r="2.04"/>
<circle fill="#rgb(88, 81, 38)" cx="17.43" cy="54.35" r="2.06"/>
<circle fill="#rgb(88, 81, 38)" cx="25.91" cy="54.36" r="2.08"/>
<circle fill="#rgb(88, 81, 38)" cx="34.43" cy="54.38" r="2.05"/>
<circle fill="#rgb(88, 81, 38)" cx="42.93" cy="54.39" r="2.04"/>
<circle fill="#rgb(88, 81, 38)" cx="51.45" cy="54.35" r="2.05"/>
<circle fill="#rgb(88, 81, 38)" cx="59.93" cy="54.38" r="2.05"/>
<circle fill="#rgb(88, 81, 38)" cx="68.45" cy="54.38" r="2.03"/>
<circle fill="#rgb(88, 81, 38)" cx="76.91" cy="54.41" r="2.04"/>
<circle fill="#rgb(88, 81, 38)" cx="85.45" cy="54.34" r="2.07"/>
<circle fill="#rgb(88, 81, 38)" cx="93.93" cy="54.36" r="2.07"/>
<circle fill="#rgb(88, 81, 38)" cx="102.42" cy="54.38" r="2.05"/>
<circle fill="#rgb(88, 81, 38)" cx="110.94" cy="54.39" r="2.04"/>
<circle fill="#rgb(88, 81, 38)" cx="119.45" cy="54.34" r="2.07"/>
<circle fill="#rgb(88, 81, 38)" cx="127.93" cy="54.39" r="2.05"/>
<circle fill="#rgb(88, 81, 38)" cx="136.45" cy="54.38" r="2.03"/>
<circle fill="#rgb(88, 81, 38)" cx="144.91" cy="54.41" r="2.04"/>
<circle fill="#rgb(88, 81, 38)" cx="153.44" cy="54.35" r="2.07"/>
<circle fill="#rgb(88, 81, 38)" cx="161.95" cy="54.37" r="2.06"/>
<circle fill="#rgb(88, 81, 38)" cx="170.44" cy="54.40" r="2.07"/>
<path fill="#rgb(88, 81, 38)" d="
  M 178.22 88.95
  L 178.25 91.96
  L 2.04 92.00
  Q 1.31 90.35 2.18 88.99
  L 178.22 88.95
  Z"
/>
<path fill="#e6d7b4" d="
  M 2.04 92.00
  L 178.25 91.96
  L 178.21 134.00
  L 2.00 133.99
  Q 1.36 112.95 2.04 92.00
  Z"
/>
<path fill="#rgb(88, 81, 38)" d="
  M 2.00 133.99
  L 178.21 134.00
  Q 178.62 135.61 177.78 137.06
  L 2.25 137.21
  Q 1.36 135.63 2.00 133.99
  Z"
/>
<path fill="#e6d7b4" d="
  M 177.78 137.06
  Q 178.06 139.81 177.50 144.02
  C 174.47 166.63 158.43 177.57 136.48 177.80
  Q 88.87 178.30 41.25 177.75
  C 17.12 177.47 2.14 160.80 2.25 137.21
  L 177.78 137.06
  Z"
/>
</svg>
